<mxfile host="65bd71144e">
    <diagram id="IRg4vNi1FWXuDyx0FYFU" name="ページ1">
        <mxGraphModel dx="819" dy="499" grid="1" gridSize="10" guides="1" tooltips="1" connect="1" arrows="1" fold="1" page="1" pageScale="1" pageWidth="827" pageHeight="1169" math="0" shadow="0">
            <root>
                <mxCell id="0"/>
                <mxCell id="1" parent="0"/>
                <mxCell id="2" value="会員ID" style="swimlane;whiteSpace=wrap;html=1;startSize=23;" parent="1" vertex="1">
                    <mxGeometry x="40" y="90" width="200" height="90" as="geometry"/>
                </mxCell>
                <mxCell id="3" value="メールアドレス&lt;br&gt;パスワード" style="text;html=1;align=left;verticalAlign=middle;resizable=0;points=[];autosize=1;strokeColor=none;fillColor=none;spacing=2;spacingTop=0;" parent="2" vertex="1">
                    <mxGeometry x="10" y="33" width="110" height="40" as="geometry"/>
                </mxCell>
                <mxCell id="4" value="会員マスタ" style="text;html=1;align=center;verticalAlign=middle;resizable=0;points=[];autosize=1;strokeColor=none;fillColor=none;" parent="1" vertex="1">
                    <mxGeometry x="40" y="60" width="80" height="30" as="geometry"/>
                </mxCell>
                <mxCell id="5" value="単語ID" style="swimlane;whiteSpace=wrap;html=1;startSize=23;" parent="1" vertex="1">
                    <mxGeometry x="320" y="170" width="200" height="90" as="geometry"/>
                </mxCell>
                <mxCell id="6" value="会員ID&lt;br&gt;単語名" style="text;html=1;align=left;verticalAlign=middle;resizable=0;points=[];autosize=1;strokeColor=none;fillColor=none;spacing=2;spacingTop=0;" parent="5" vertex="1">
                    <mxGeometry x="10" y="33" width="60" height="40" as="geometry"/>
                </mxCell>
                <mxCell id="7" value="単語マスタ" style="text;html=1;align=center;verticalAlign=middle;resizable=0;points=[];autosize=1;strokeColor=none;fillColor=none;" parent="1" vertex="1">
                    <mxGeometry x="320" y="140" width="80" height="30" as="geometry"/>
                </mxCell>
                <mxCell id="8" value="意味ID" style="swimlane;whiteSpace=wrap;html=1;startSize=23;" parent="1" vertex="1">
                    <mxGeometry x="600" y="100" width="200" height="90" as="geometry"/>
                </mxCell>
                <mxCell id="9" value="単語ID&lt;br&gt;意味" style="text;html=1;align=left;verticalAlign=middle;resizable=0;points=[];autosize=1;strokeColor=none;fillColor=none;spacing=2;spacingTop=0;" parent="8" vertex="1">
                    <mxGeometry x="10" y="33" width="60" height="40" as="geometry"/>
                </mxCell>
                <mxCell id="10" value="意味マスタ" style="text;html=1;align=center;verticalAlign=middle;resizable=0;points=[];autosize=1;strokeColor=none;fillColor=none;" parent="1" vertex="1">
                    <mxGeometry x="600" y="70" width="80" height="30" as="geometry"/>
                </mxCell>
                <mxCell id="11" value="例文ID" style="swimlane;whiteSpace=wrap;html=1;startSize=23;" parent="1" vertex="1">
                    <mxGeometry x="530" y="360" width="200" height="90" as="geometry"/>
                </mxCell>
                <mxCell id="12" value="意味ID&lt;br&gt;例文&lt;br&gt;例文意味" style="text;html=1;align=left;verticalAlign=middle;resizable=0;points=[];autosize=1;strokeColor=none;fillColor=none;spacing=2;spacingTop=0;" parent="11" vertex="1">
                    <mxGeometry x="10" y="28" width="70" height="50" as="geometry"/>
                </mxCell>
                <mxCell id="13" value="例文マスタ" style="text;html=1;align=center;verticalAlign=middle;resizable=0;points=[];autosize=1;strokeColor=none;fillColor=none;" parent="1" vertex="1">
                    <mxGeometry x="530" y="330" width="80" height="30" as="geometry"/>
                </mxCell>
                <mxCell id="14" value="" style="edgeStyle=entityRelationEdgeStyle;fontSize=12;html=1;endArrow=ERzeroToMany;startArrow=ERmandOne;rounded=0;" parent="1" edge="1">
                    <mxGeometry width="100" height="100" relative="1" as="geometry">
                        <mxPoint x="240" y="140" as="sourcePoint"/>
                        <mxPoint x="320" y="220" as="targetPoint"/>
                    </mxGeometry>
                </mxCell>
                <mxCell id="15" value="" style="edgeStyle=entityRelationEdgeStyle;fontSize=12;html=1;endArrow=ERzeroToMany;startArrow=ERmandOne;rounded=0;" parent="1" edge="1">
                    <mxGeometry width="100" height="100" relative="1" as="geometry">
                        <mxPoint x="520" y="220" as="sourcePoint"/>
                        <mxPoint x="600" y="153" as="targetPoint"/>
                    </mxGeometry>
                </mxCell>
                <mxCell id="16" value="" style="edgeStyle=entityRelationEdgeStyle;fontSize=12;html=1;endArrow=ERzeroToMany;startArrow=ERmandOne;rounded=0;exitX=0.75;exitY=1;exitDx=0;exitDy=0;" parent="1" edge="1">
                    <mxGeometry width="100" height="100" relative="1" as="geometry">
                        <mxPoint x="800" y="149.9999999999999" as="sourcePoint"/>
                        <mxPoint x="530" y="400" as="targetPoint"/>
                    </mxGeometry>
                </mxCell>
            </root>
        </mxGraphModel>
    </diagram>
</mxfile>